<svg xmlns="http://www.w3.org/2000/svg" viewBox="0 0 128 128"><path fill="#fff" d="M65.8 84.9c1.2 2.1 3 3.8 5 5 1.2.7 2.5 1.3 3.9 1.6 1.1.3 2.3.4 3.6.4 1.2 0 2.4-.2 3.6-.4 1.4-.3 2.7-.9 3.9-1.6 2.1-1.2 3.8-3 5-5 .7-1.2 1.3-2.5 1.6-3.9.3-1.1.4-2.3.4-3.6 0-1.2-.2-2.4-.4-3.6-.3-1.4-.9-2.7-1.6-3.9-1.2-2.1-3-3.8-5-5-1.2-.7-2.5-1.3-3.9-1.6-1.1-.3-2.3-.4-3.6-.4-1.2 0-2.4.2-3.6.4-1.4.3-2.7.9-3.9 1.6-2.1 1.2-3.8 3-5 5-.7 1.2-1.3 2.5-1.6 3.9-.3 1.1-.4 2.3-.4 3.6 0 1.2.2 2.4.4 3.6.3 1.4.9 2.7 1.6 3.9z"/><path fill="#fff" d="M119.6 71h-2.9c-1-5.9-3.3-11.4-6.7-16.1l2-2c2.5-2.5 2.5-6.6 0-9.2-2.5-2.5-6.7-2.5-9.2 0l-2 2c-4.6-3.4-10.1-5.7-16-6.7v-2.9c0-3.6-2.9-6.5-6.5-6.5-1.9 0-3.6.8-4.8 2.2.8 1.4 1.2 3 1.2 4.7 0 4.6-3.3 8.5-7.6 9.5-.6 2.1-1.4 4.1-2.5 5.9.5.7.8 1.5 1.1 2.3 1.9-1 4-1.9 6.1-2.4 2.1-.5 4.3-.8 6.5-.8s4.4.3 6.5.8c2.5.6 4.9 1.6 7 2.9 3.8 2.2 6.9 5.4 9.2 9.2 1.3 2.2 2.3 4.5 2.9 7 .5 2.1.8 4.3.8 6.5s-.3 4.4-.8 6.5c-.6 2.5-1.6 4.9-2.9 7-2.2 3.8-5.4 6.9-9.2 9.2-2.2 1.3-4.5 2.3-7 2.9-2.1.5-4.3.8-6.5.8s-4.4-.3-6.5-.8c-2.5-.6-4.9-1.6-7-2.9-3.8-2.2-6.9-5.4-9.2-9.2-1.3-2.2-2.3-4.5-2.9-7-.5-2.1-.8-4.3-.8-6.5s.3-4.4.8-6.5c.4-1.5.9-3 1.5-4.4-1.1-.3-2.1-.7-3-1.3-1.9 1-3.9 1.8-5.9 2.5-.9 4.4-4.8 7.6-9.5 7.6-1.6 0-3.1-.4-4.5-1.1-.5.9-.8 2-.8 3.1 0 3.6 2.9 6.5 6.5 6.5h2.9c1 5.9 3.3 11.4 6.7 16.1l-2 2c-2.5 2.5-2.5 6.6 0 9.2 1.3 1.3 2.9 1.9 4.6 1.9 1.7 0 3.3-.6 4.6-1.9l2-2c4.7 3.3 10.2 5.7 16.1 6.7v2.9c0 3.6 2.9 6.5 6.5 6.5s6.5-2.9 6.5-6.5v-2.9c5.9-1 11.4-3.3 16.1-6.7l2 2c1.3 1.3 2.9 1.9 4.6 1.9 1.7 0 3.3-.6 4.6-1.9 2.5-2.5 2.5-6.7 0-9.2l-2-2c3.3-4.7 5.7-10.2 6.7-16.1h2.9c3.6 0 6.5-2.9 6.5-6.5-.2-3.4-3.1-6.3-6.7-6.3z"/><path fill="#fff" d="M31.1 65.7c0 2.5 2.1 4.6 4.6 4.6 2.5 0 4.6-2.1 4.6-4.6v-2c4.2-.7 8.1-2.3 11.4-4.7l1.4 1.4c.9.9 2.1 1.3 3.2 1.3 1.2 0 2.3-.4 3.2-1.3 1.8-1.8 1.8-4.7 0-6.5l-1.4-1.4c2.4-3.3 4-7.2 4.7-11.4h2c2.5 0 4.6-2.1 4.6-4.6 0-2.5-2.1-4.6-4.6-4.6h-2c-.7-4.2-2.4-8.1-4.7-11.4l1.4-1.4c1.8-1.8 1.8-4.7 0-6.5-1.8-1.8-4.7-1.8-6.5 0L51.7 14c-3.3-2.4-7.2-4-11.4-4.7v-2c0-2.5-2.1-4.6-4.6-4.6-2.5 0-4.6 2.1-4.6 4.6v2c-4.1.7-8 2.4-11.3 4.7l-1.4-1.4c-1.8-1.8-4.7-1.8-6.5 0-1.8 1.8-1.8 4.7 0 6.5l1.4 1.4c-2.4 3.3-4 7.2-4.7 11.4h-2C4.1 31.9 2 34 2 36.5c0 2.5 2.1 4.6 4.6 4.6h2c.7 4.2 2.3 8.1 4.7 11.4l-1.4 1.4c-1.8 1.8-1.8 4.7 0 6.5.9.9 2.1 1.3 3.2 1.3 1.2 0 2.4-.4 3.2-1.3l1.4-1.4c3.3 2.4 7.2 4 11.4 4.7v2zm-3-16.4c-2.1-1.3-3.9-3-5.2-5.2-.7-1.2-1.3-2.5-1.6-4-.3-1.2-.5-2.4-.5-3.6 0-1.3.2-2.5.5-3.6.4-1.4.9-2.7 1.6-4 1.3-2.1 3-3.9 5.2-5.2 1.2-.7 2.5-1.3 4-1.6 1.2-.3 2.4-.5 3.6-.5 1.3 0 2.5.2 3.6.5 1.4.4 2.7.9 4 1.6 2.1 1.3 3.9 3 5.2 5.2.7 1.2 1.3 2.5 1.6 4 .3 1.2.5 2.4.5 3.6 0 1.3-.2 2.5-.5 3.6-.4 1.4-.9 2.7-1.6 4-1.3 2.1-3 3.9-5.2 5.2-1.2.7-2.5 1.3-4 1.6-1.2.3-2.4.5-3.6.5-1.3 0-2.5-.2-3.6-.5-1.4-.3-2.7-.9-4-1.6z"/></svg>